<mxfile host="app.diagrams.net" agent="Mozilla/5.0 (Windows NT 10.0; Win64; x64) AppleWebKit/537.36 (KHTML, like Gecko) Chrome/128.0.0.0 Safari/537.36" version="24.7.14">
  <diagram name="Halaman-1" id="k4vkRtkf0ZOUL68hIqhK">
    <mxGraphModel dx="1290" dy="603" grid="1" gridSize="10" guides="1" tooltips="1" connect="1" arrows="1" fold="1" page="1" pageScale="1" pageWidth="827" pageHeight="1169" math="0" shadow="0">
      <root>
        <mxCell id="0" />
        <mxCell id="1" parent="0" />
        <mxCell id="tmGtUV24i7dUl0qug2qR-1" value="&lt;table border=&quot;1&quot; width=&quot;100%&quot; height=&quot;100%&quot; cellpadding=&quot;4&quot; style=&quot;width:100%;height:100%;border-collapse:collapse;&quot;&gt;&lt;tbody&gt;&lt;tr&gt;&lt;th align=&quot;center&quot;&gt;&lt;b&gt;mechanic&lt;/b&gt;&lt;/th&gt;&lt;/tr&gt;&lt;tr&gt;&lt;td&gt;- id: String&lt;br&gt;- name: String&lt;/td&gt;&lt;/tr&gt;&lt;tr&gt;&lt;td&gt;+ getId(): String&lt;br&gt;+ setId(String id): void&lt;br&gt;+ getName(): String&lt;br&gt;+ setName(String name): void&lt;br&gt;+ getInfo(): String&lt;br&gt;&lt;/td&gt;&lt;/tr&gt;&lt;/tbody&gt;&lt;/table&gt;" style="text;html=1;whiteSpace=wrap;strokeColor=none;fillColor=none;overflow=fill;" parent="1" vertex="1">
          <mxGeometry x="90" y="95" width="180" height="180" as="geometry" />
        </mxCell>
        <mxCell id="90g8b94X6tRR0j5vudsH-1" value="&lt;table border=&quot;1&quot; width=&quot;100%&quot; height=&quot;100%&quot; cellpadding=&quot;4&quot; style=&quot;width:100%;height:100%;border-collapse:collapse;&quot;&gt;&lt;tbody&gt;&lt;tr&gt;&lt;th align=&quot;center&quot;&gt;&lt;b&gt;services&lt;/b&gt;&lt;/th&gt;&lt;/tr&gt;&lt;tr&gt;&lt;td&gt;- date: LocalDate&lt;br&gt;- mechanic: mechanic&lt;br&gt;- description: String&lt;/td&gt;&lt;/tr&gt;&lt;tr&gt;&lt;td&gt;+ getDate(): LocalDate&lt;br&gt;+ setDate(LocalDate date): void&lt;br&gt;+ getMechanic(): mechanic&lt;br&gt;+ setMechanic(mechanic mechanic): void&lt;br&gt;+ getDescription(): String&lt;br&gt;+ setDescription(String description): void&lt;br&gt;+ getInfo(): String&lt;br&gt;&lt;/td&gt;&lt;/tr&gt;&lt;/tbody&gt;&lt;/table&gt;" style="text;html=1;whiteSpace=wrap;strokeColor=none;fillColor=none;overflow=fill;" parent="1" vertex="1">
          <mxGeometry x="480" y="90" width="240" height="190" as="geometry" />
        </mxCell>
        <mxCell id="90g8b94X6tRR0j5vudsH-2" value="&lt;table border=&quot;1&quot; width=&quot;100%&quot; height=&quot;100%&quot; cellpadding=&quot;4&quot; style=&quot;width:100%;height:100%;border-collapse:collapse;&quot;&gt;&lt;tbody&gt;&lt;tr&gt;&lt;th align=&quot;center&quot;&gt;&lt;b&gt;car&lt;/b&gt;&lt;/th&gt;&lt;/tr&gt;&lt;tr&gt;&lt;td&gt;- numberPlate: String&lt;br&gt;- owner: String&lt;br&gt;- serviceHistory: ArrayList&amp;lt;service&amp;gt;&lt;/td&gt;&lt;/tr&gt;&lt;tr&gt;&lt;td&gt;+ getNumberPlate(): String&lt;br&gt;+ setNumberPlate(String numberPlate): void&lt;br&gt;+ getOwner(): String&lt;br&gt;+ setOwner(String owner): void&lt;br&gt;+ getInfo(): String&lt;br&gt;+&amp;nbsp;addService(LocalDate date, mechanic mechanic, String description): void&lt;/td&gt;&lt;/tr&gt;&lt;/tbody&gt;&lt;/table&gt;" style="text;html=1;whiteSpace=wrap;strokeColor=none;fillColor=none;overflow=fill;" parent="1" vertex="1">
          <mxGeometry x="260" y="440" width="450" height="180" as="geometry" />
        </mxCell>
        <mxCell id="90g8b94X6tRR0j5vudsH-7" value="" style="endArrow=diamondThin;endFill=1;endSize=24;html=1;rounded=0;entryX=1;entryY=0.5;entryDx=0;entryDy=0;exitX=0;exitY=0.5;exitDx=0;exitDy=0;" parent="1" source="90g8b94X6tRR0j5vudsH-1" target="tmGtUV24i7dUl0qug2qR-1" edge="1">
          <mxGeometry width="160" relative="1" as="geometry">
            <mxPoint x="194" y="370" as="sourcePoint" />
            <mxPoint x="414" y="310" as="targetPoint" />
          </mxGeometry>
        </mxCell>
        <mxCell id="kGLUTEVAVvZpisa7H6la-1" value="" style="endArrow=none;html=1;rounded=0;entryX=0.25;entryY=1;entryDx=0;entryDy=0;exitX=0.623;exitY=-0.001;exitDx=0;exitDy=0;exitPerimeter=0;" edge="1" parent="1" source="90g8b94X6tRR0j5vudsH-2" target="90g8b94X6tRR0j5vudsH-1">
          <mxGeometry width="50" height="50" relative="1" as="geometry">
            <mxPoint x="390" y="440" as="sourcePoint" />
            <mxPoint x="530" y="300" as="targetPoint" />
          </mxGeometry>
        </mxCell>
        <mxCell id="kGLUTEVAVvZpisa7H6la-2" value="" style="endArrow=none;html=1;rounded=0;entryX=0.75;entryY=1;entryDx=0;entryDy=0;" edge="1" parent="1" target="90g8b94X6tRR0j5vudsH-1">
          <mxGeometry width="50" height="50" relative="1" as="geometry">
            <mxPoint x="660" y="440" as="sourcePoint" />
            <mxPoint x="658" y="290" as="targetPoint" />
            <Array as="points" />
          </mxGeometry>
        </mxCell>
        <mxCell id="kGLUTEVAVvZpisa7H6la-3" value="&lt;div style=&quot;text-align: -webkit-center;&quot;&gt;&lt;span style=&quot;background-color: initial;&quot;&gt;&lt;b&gt;1&lt;/b&gt;&lt;/span&gt;&lt;/div&gt;" style="text;whiteSpace=wrap;html=1;" vertex="1" parent="1">
          <mxGeometry x="510" y="410" width="50" height="40" as="geometry" />
        </mxCell>
        <mxCell id="kGLUTEVAVvZpisa7H6la-4" value="&lt;div style=&quot;text-align: -webkit-center;&quot;&gt;&lt;span style=&quot;background-color: initial;&quot;&gt;&lt;b&gt;0..*&lt;/b&gt;&lt;/span&gt;&lt;/div&gt;" style="text;whiteSpace=wrap;html=1;" vertex="1" parent="1">
          <mxGeometry x="450" y="200" width="50" height="40" as="geometry" />
        </mxCell>
        <mxCell id="kGLUTEVAVvZpisa7H6la-5" value="&lt;div style=&quot;text-align: -webkit-center;&quot;&gt;&lt;span style=&quot;background-color: initial;&quot;&gt;&lt;b&gt;0..*&lt;/b&gt;&lt;/span&gt;&lt;/div&gt;" style="text;whiteSpace=wrap;html=1;" vertex="1" parent="1">
          <mxGeometry x="510" y="290" width="50" height="40" as="geometry" />
        </mxCell>
        <mxCell id="kGLUTEVAVvZpisa7H6la-6" value="&lt;div style=&quot;text-align: -webkit-center;&quot;&gt;&lt;span style=&quot;background-color: initial;&quot;&gt;&lt;b&gt;1&lt;/b&gt;&lt;/span&gt;&lt;/div&gt;" style="text;whiteSpace=wrap;html=1;" vertex="1" parent="1">
          <mxGeometry x="670" y="410" width="50" height="40" as="geometry" />
        </mxCell>
        <mxCell id="kGLUTEVAVvZpisa7H6la-7" value="&lt;div style=&quot;text-align: -webkit-center;&quot;&gt;&lt;span style=&quot;background-color: initial;&quot;&gt;&lt;b&gt;0..*&lt;/b&gt;&lt;/span&gt;&lt;/div&gt;" style="text;whiteSpace=wrap;html=1;" vertex="1" parent="1">
          <mxGeometry x="670" y="290" width="50" height="40" as="geometry" />
        </mxCell>
      </root>
    </mxGraphModel>
  </diagram>
</mxfile>
